<svg viewBox="0 0 1101 1100" xmlns="http://www.w3.org/2000/svg" fill-rule="evenodd" clip-rule="evenodd" stroke-miterlimit="10"><path fill="none" d="M.89 0h1099.997v1099.997H.89z"/><path d="M88.391 91.8l234.373 55.207 59.377 186.456-218.748-19.79L88.39 91.8z" fill="#8ac75a" fill-rule="nonzero"/><path d="M100.711 515.671l216.718 66.104 64.711-248.31-218.751-19.792-62.678 201.998z" fill="#6e9a43" fill-rule="nonzero"/><path d="M100.711 515.668l216.718 66.104 49 198.39-204.99-40.872-60.728-223.622z" fill="#8ac75a" fill-rule="nonzero"/><path d="M100.711 972.921l259.556 26.042 6.161-218.803-204.986-40.864-60.73 233.625z" fill="#6e9a43" fill-rule="nonzero"/><path d="M532.109 91.8l-209.343 55.209 59.377 186.456 207.291-12.45L532.109 91.8z" fill="#95cb6e" fill-rule="nonzero"/><path d="M540.474 517.708l-225 64.063 66.665-248.306 207.294-12.45-48.96 196.693z" fill="#6fbf54" fill-rule="nonzero"/><path d="M540.475 517.712l-225 64.063 50.954 198.388 208.421-36.411-34.375-226.04z" fill="#95cb6e" fill-rule="nonzero"/><path d="M532.11 946.44l-171.842 52.516 6.16-218.795 208.421-36.413-42.739 202.691z" fill="#6fbf54" fill-rule="nonzero"/><path d="M532.109 91.8l212.53 57.162 59.377 217.705-214.582-45.653L532.11 91.8z" fill="#9ed193" fill-rule="nonzero"/><path d="M539.882 516.798l217.264 71.746 46.872-221.876-214.583-45.652-49.553 195.782z" fill="#95cb6e" fill-rule="nonzero"/><path d="M539.882 516.8l217.26 71.744 39.583 229.166-221.874-74.396-34.969-226.515z" fill="#9ed193" fill-rule="nonzero"/><path d="M532.11 946.441l217.267 69.267 47.349-197.997-221.874-74.392-42.743 203.122zM972.737 85.367L744.644 148.96l59.374 217.712 226.041-52.085-57.322-229.219z" fill="#95cb6e" fill-rule="nonzero"/><path d="M959.226 525.003l-202.083 63.542 46.876-221.878 226.04-52.083-70.833 210.42z" fill="#6fbf54" fill-rule="nonzero"/><path d="M959.226 525.003l-202.084 63.541 39.583 229.167 222.919-86.459-60.418-206.25z" fill="#95cb6e" fill-rule="nonzero"/><path d="M960.096 950.826l-210.72 64.883 47.35-197.997 222.916-86.461-59.546 219.575z" fill="#6fbf54" fill-rule="nonzero"/><g><g transform="translate(.89) scale(4.16667)"><clipPath id="a"><path d="M178.501 35.293l-51.008-13.718-50.242 13.249L21 21.575l18.001 53.25-15.045 48.478 14.575 53.669-14.575 56.07 62.295 6.251 41.242-12.604 52.144 16.623 50.573-15.573 14.291-52.696-14.5-49.499 17-50.5-13.758-55.013-54.742 15.262z" clip-rule="nonzero"/></clipPath><g clip-path="url(#a)"><g opacity=".3"><path d="M58.219 234.785c-6-4.75-17.25-5.75-18.25-13.25s9.25-10 13.75-14.25 2-11.25-2.25-12.25a4.07 4.07 0 00-.812-.094c-4.03-.101-8.282 5.719-9.688 7.594-1.5 2-6.25 5-17 9.5l-14.5 34.25 53 4.25s1.75-11-4.25-15.75M108.219 126.785c-.094-.031-.206-.041-.312-.031-1.595.146-4.469 4.687-4.938 7.031-.5 2.5-3.25 6.75-3.5 12.25s4.75 6.75 8.75 6.5 2.75-6.75 2-15c-.25 0-.5-10.25-2-10.75M240.719 212.285s4.75-4.25-20.75-24.25c-9.562-7.5-15.543-9.803-19.344-9.625-6.336.295-6.625 7.469-7.406 8.875-1.25 2.25 2.25 13.75 2 18s-4.75 5.25-9.5 9.75.5 16 11.25 31l44.75 1.25-1-35z" fill="#fff" fill-rule="nonzero"/><path d="M122.469 123.035c-2 .75-12.75 7.999-10.5 14.249 2.25 6.25 1.75 18-3.5 18s-8 0-10-2.5-2-12 0-19.75c2-7.749 3.5-14.999 8-18.249 3.094-2.234 6.632-2.129 9.438-2.125 1.275.002 5.859 1.594 6.562 2.375 2.25 2.5 2 7.25 0 8m7.031 62.718c.203.013 1.907 3.515 4.719 7.031 3 3.75 3.25 8.25 3.25 8.25s-4.25-4.75-6-8-2-7.25-2-7.25c0-.031.018-.031.031-.031m24.719-15.969c12 11.5 46.25 5.75 57.75 3.75 9.955-1.73 20.834 14.883 23.906 26.031a302.422 302.422 0 011.657-5.75c-1.739-1.926-3.698-4.619-5.313-8.281-3.75-8.5-12-13.25-12-13.25s8.75-5 14.75-7.75a18.948 18.948 0 004.188-2.656c-.163-.774-.259-1.256-.438-2.094a68.125 68.125 0 00-.094-.437c-4.765 5.562-19.232 9.615-21.656 10.937-2.75 1.5-18.25 3-35.75 4.5s-26.75-7.5-34.25-14.75-13-35.999-3-37.999 20 13.749 30 16.999c10 3.25 21.5-15.749 19.75-26.999-.191-1.233-.681-2.394-1.406-3.475l2.406-2.775s3.25 4 2.75 8.75-3.75 14.749.25 17.249c4 2.5 19.5-2 24-6.999 4.5-5-4.75-28.25-10.5-29.5s-18.5-1.75-17-7 11.75 4.5 17.25 3.25 16.75-21 12-25.25-24.25-5.25-25.75-8 21-8 22.25-11-2.5-7.25-6.25-8.5-14 16.25-21 15.75-20 5.75-17.25 11.5-6 11-14.5 6.5-24.75-13-21.75-24 21.5-18.75 21.5-18.75l-39.25-10.25-4.25 7c-.75 9-2.25 13.75-8.5 16.5s-12.25 3.5-11 7.5 13 9.25 14.25 13 8.25 1.75 11 7 2 15.25-3.75 17.25-17.5.5-20.25 9.5-4.75 10.5-9 12.75-7.25 10.5-3.5 16.499c3.101 4.962 9.447.863 13.107-3.673-3.889 11.684-4.12 26.896-5.107 31.173-1.5 6.5-17.5 20.75-20 23.5s-13.25 7.25-19.5 8.5-12.75 7.25-15.5 11c-2.021 2.756-7.406 6.451-10.125 8.219-.046.181-.079.349-.125.531-.134.535-.247 1.084-.375 1.625 4.979-1.605 11.18-8.18 16.625-13.625 6.25-6.25 20-7.75 27.75-11.5s14.25-19.75 26.5-23.75 21.25 11.75 24.25 18.5 1.75 12.75 3.75 17 11 11.75 11.5 13.5-5 6.5-6.25 8.5-10.5 7-11.75 8.75c-.966 1.352-1.924 6.773-2.313 9.219a67.64 67.64 0 001.125-.469c.485-2.529 1.516-7.078 2.938-8.5 2-2 11.25-4.5 12.5-8.5s7-6.5 7-6.5 2.75 4 16 14c8.834 6.666 12.758 15.533 14.406 20.719.674.172 1.533.41 2.032.531-1.221-4.318-4.836-16.238-8.938-20.75-5-5.5-18.5-10.75-22.75-22s-24.5-34.25-17.5-40.25 16.5-4 28.5 7.5" fill="#fff" fill-rule="nonzero"/></g><path d="M129.5 185.753c.203.014 1.906 3.516 4.719 7.031 3 3.75 3.25 8.25 3.25 8.25s-4.25-4.75-6-8-2-7.25-2-7.25c0-.031.017-.031.031-.031m-13.594-73.093c1.276.002 5.86 1.594 6.563 2.375 2.25 2.5 2 7.25 0 8s-12.75 7.999-10.5 14.249c2.25 6.25 1.75 18-3.5 18s-8 0-10-2.5-2-12 0-19.75c2-7.749 3.5-14.999 8-18.249 3.094-2.234 6.632-2.129 9.437-2.125m53.344-13.281c-4.76-.015-9.031.969-11.531 3.156-8 7-35 .75-48.5 7s-13.25 37.999-14.75 44.499-17.5 20.75-20 23.5-13.25 7.25-19.5 8.5-12.75 7.25-15.5 11c-2.022 2.756-7.407 6.451-10.125 8.219-.046.182-.079.35-.125.531-.134.535-.247 1.084-.375 1.625 4.979-1.605 11.179-8.179 16.625-13.625 6.25-6.25 20-7.75 27.75-11.5s14.25-19.75 26.5-23.75 21.25 11.75 24.25 18.5 1.75 12.75 3.75 17 11 11.75 11.5 13.5-5 6.5-6.25 8.5-10.5 7-11.75 8.75c-.966 1.352-1.924 6.774-2.313 9.219.413-.168.754-.311 1.125-.469.485-2.529 1.516-7.078 2.938-8.5 2-2 11.25-4.5 12.5-8.5s7-6.5 7-6.5 2.75 4 16 14c8.834 6.666 12.758 15.533 14.406 20.719.674.172 1.533.41 2.031.531-1.22-4.318-4.836-16.238-8.937-20.75-5-5.5-18.5-10.75-22.75-22s-24.5-34.25-17.5-40.25 16.5-4 28.5 7.5 46.25 5.75 57.75 3.75c9.955-1.73 20.834 14.883 23.906 26.032a308.182 308.182 0 011.656-5.75c-1.738-1.926-3.697-4.62-5.312-8.282-3.75-8.5-12-13.25-12-13.25s8.75-5 14.75-7.75a18.88 18.88 0 004.187-2.656c-.162-.773-.259-1.256-.437-2.094l-.094-.437c-4.766 5.562-19.232 9.615-21.656 10.937-2.75 1.5-18.25 3-35.75 4.5s-26.75-7.5-34.25-14.75-13-35.999-3-37.999 20 13.749 30 16.999c10 3.25 21.5-15.749 19.75-26.999-1.203-7.734-13.997-12.625-24.469-12.656" fill="#77b6e4" fill-rule="nonzero" opacity=".6"/><path d="M133.469 86.285c6.25.5 12.25-2.25 10.75-6.5s-12.5-7.25-13.25-3 2 10.5 2.5 9.5zM119.469 70.785c-8.5-5.5-8.5-7.25-7-8s10.25 5 12.75 8-2.25 2-5.75 0zM26.469 165.285c33-2.5 38.25-3.5 36.25-10.25s-8.75-23.5-23-22.5-22.75-6.75-22.75-6.75" fill="none" stroke="#fff" opacity=".39"/><path d="M28.219 191.284c18.25-10 28.75-8.5 35-11.5s13.25-5.75 15.75-9.5 5.75-11.5 5.75-18-3.5-35.999 3.25-43.499 17.25-26 26-23.25 12.25 9.75 22 9.5 21.75-4 24.25-12.25-15.75-16-16-23 5.5-14.25 20.25-17 23.5-11.5 23.5-11.5" fill="none" stroke="#fff" opacity=".39"/><path d="M25.219 175.034c15.25-1.5 22.25 3.5 31.5 1.75s13.25-3 17.75-5.75 6-3.75 6.25-6.5 1-12.5-3-22-12.5-31.499-8.25-38.749c4.25-7.25 5.25-21.5 15.75-24.5s21-6.25 27.75-1.25 12.75 14.25 20 14.5 11.75-1.5 14.5-4.5 4.5-10.25 1.75-13.75-15.5-5.5-17.25-9.5-10.75-17-.25-26.75 36.25-8.25 36.25-8.25" fill="none" stroke="#fff" opacity=".39"/><path d="M31.969 173.034c13.75 1 21.5 4.25 33.5-.5s13.5-5.25 13.75-8.75-.25-15.75-3-20-13-13.75-15.75-24.249c-2.75-10.5.25-41 8.5-48.25s32-7.25 37.5-10.5 5.25-16.75 13-24.5 27-12.25 27-12.25M200.719 32.535c11.75 5 39 9.75 47.25 40.25M20.469 228.035c19-12.5 36-1.25 49-4s38.25-37.25 46-37 5.5-11.75 8.5-13.25 5.5 6 11.75 8 24.5-2.75 23.5-5.75-7-7.75-5.5-8.5 8.5 5 12.75 3.5 43.75-1 48.5-13.5 21.5-13.5 21.5-13.5M88.219 247.535c13.5-11.5 23.25-25 28.5-27s12.75-3.75 15.75-8 2.5-10.75 5.25-12 3.75 5.75 8.75 6 36.75-5 42.75-11.75 32.25-12.5 32.5-14.5-1-4.75.25-5.5 24.75-6 24.75-6M179.469 250.035c9-13.75 20.5-41 29.5-42s10.25-2.5 12.5-4.25 17 2.25 17 2.25" fill="none" stroke="#fff" opacity=".39"/><g opacity=".3"><path d="M68.469 34.035l-8.5 28.25 18 6.25 7.75 36.25-21 22.249 9 10.5-12 11.5.5 4.5 20.25 24.5 14-6.75 20.5 18.5-10.5 28.25 10.25 8.5-2.75 13" fill="none" stroke="#231f20" stroke-width="2" stroke-linecap="round" stroke-miterlimit="4"/><path d="M116.469 226.285l12.5-27.75 11-7 27.5 15.75 20.5-3.75-.25-15.75-10.25-6 12.75-26.25 5.75-3.75 38.75-10" fill="none" stroke="#231f20" stroke-width="2" stroke-linecap="round" stroke-miterlimit="4"/></g></g></g><path d="M997.574 483.742c-11.917 146.7-140.508 255.967-287.213 244.05-146.696-11.916-255.962-140.5-244.05-287.204 11.917-146.696 140.509-255.967 287.205-244.05 146.708 11.92 255.975 140.504 244.058 287.204M755.382 173.608C596.02 160.671 456.336 279.363 443.39 438.73c-12.937 159.362 105.755 299.046 265.113 311.983 159.363 12.95 299.05-105.754 311.996-265.108 12.938-159.367-105.754-299.047-265.117-311.997" fill="#77b6e4" fill-rule="nonzero"/><path d="M1006.244 485.209C993.977 636.24 861.59 748.729 710.557 736.462c-151.023-12.271-263.52-144.651-251.25-295.679 12.268-151.031 144.647-263.517 295.676-251.258 151.035 12.272 263.533 144.656 251.261 295.684" fill="#fff" fill-rule="nonzero" opacity=".6"/><path d="M902.278 423.61c-101.67-35.988-193.054-48.608-265.275-1.383-89.704 58.654-115.813 197.925-140.267 99.341-6.179-24.92-8.487-51.254-6.291-78.254 10.866-133.842 128.175-233.513 262.012-222.65 53.025 4.308 100.688 25.32 138.238 57.45 57.233 48.967 88.012 172.554 11.583 145.496" fill="#fff" fill-rule="nonzero" opacity=".6"/><path d="M997.574 483.742c-11.917 146.7-140.508 255.967-287.213 244.05-146.696-11.916-255.962-140.5-244.05-287.204 11.917-146.696 140.509-255.967 287.205-244.05 146.708 11.92 255.975 140.504 244.058 287.204M755.382 173.608C596.02 160.671 456.336 279.363 443.39 438.73c-12.937 159.362 105.755 299.046 265.113 311.983 159.363 12.95 299.05-105.754 311.996-265.108 12.938-159.367-105.754-299.047-265.117-311.997" fill="#3c4c5d" fill-rule="nonzero"/><path fill="#3c4c5d" d="M472.117 760.967l69.73-69.73-37.318-37.318-69.73 69.73z"/><path fill="#495969" d="M461.002 749.853l69.733-69.732-15.091-15.091-69.733 69.733z"/><path d="M487.64 591.523l-27.886 14.622c28.954 55.093 74.141 100.741 129.82 129.97l14.627-27.896c-49.993-26.244-90.563-67.224-116.56-116.696" fill="#3c4c5d" fill-rule="nonzero"/><path fill="#ffdf69" d="M432.566 696.356L407.51 721.41l75.166 75.166 25.055-25.056zM138.69 981.93l-25.046 25.052 75.172 75.16 25.047-25.052z"/><path fill="#ffec95" d="M448.422 712.213l-25.056 25.055 41.602 41.602 25.055-25.056zM156.405 999.636l-25.053 25.052 41.602 41.601 25.052-25.052z"/><path fill="#3c4c5d" d="M407.046 695.893L117.327 985.608l92.857 92.858 289.719-289.714z"/><path fill="#495969" d="M424.385 713.237L134.67 1002.948l41.504 41.505L465.89 754.74z"/></g></svg>